<svg width="24" height="24" viewBox="0 0 24 24" fill="none" xmlns="http://www.w3.org/2000/svg">
<path fill-rule="evenodd" clip-rule="evenodd" d="M14 21L15.1146 20H24V20.5C21.9631 20.8353 19.902 21.0025 17.8377 21H14ZM4.0054 3L4.97615 12L5.96265 11.822L5.1191 4H18.881L17.8158 13.8754C17.7931 14.0883 17.7511 14.2973 17.691 14.5L18.5574 15.0585C18.6845 14.7142 18.7699 14.3531 18.8099 13.9826L18.916 13H19.3168C20.3037 13 21.2557 12.6352 21.9899 11.9757C22.724 11.3162 23.1885 10.4086 23.2939 9.4274L23.4724 7.7674C23.5099 7.41855 23.4736 7.0657 23.3658 6.73181C23.258 6.39792 23.0811 6.09046 22.8466 5.82943C22.6122 5.5684 22.3254 5.35965 22.005 5.21675C21.6845 5.07384 21.3376 4.99999 20.9867 5H19.7789L19.9946 3H4.0054ZM19.671 6H20.9867C21.1972 6.00001 21.4053 6.04431 21.5975 6.13002C21.7898 6.21574 21.9618 6.34095 22.1025 6.49752C22.2431 6.65409 22.3493 6.83851 22.414 7.03879C22.4787 7.23907 22.5006 7.45072 22.4781 7.66L22.3 9.3206C22.222 10.057 21.8739 10.7384 21.323 11.2332C20.7721 11.7281 20.0573 12.0012 19.3168 12H19.0238L19.671 6Z" fill="black"/>
<path d="M8.72685 21.6816C8.62321 21.6714 8.51893 21.6663 8.41439 21.6663C7.98927 21.6663 7.56839 21.7512 7.17648 21.916C7.17495 21.9167 7.17342 21.9173 7.1719 21.918C6.93465 22.0182 6.71097 22.1466 6.50548 22.2999L6.82815 22.6226L6.49507 22.9557C6.74458 22.7088 7.0394 22.5122 7.36349 22.377C7.69649 22.238 8.05379 22.1665 8.41459 22.1665C8.77549 22.1665 9.13269 22.238 9.46569 22.377C9.78967 22.5122 10.0844 22.7087 10.3339 22.9554L10.001 22.6226L10.3235 22.3001C10.1181 22.1468 9.89443 22.0184 9.65722 21.9181C9.65558 21.9174 9.65394 21.9167 9.6523 21.916C9.35674 21.7917 9.04476 21.7128 8.72685 21.6816ZM8.72685 21.6816C8.62326 21.6715 8.51905 21.6665 8.41459 21.6665C7.98939 21.6665 7.56824 21.7504 7.17547 21.9136C7.17394 21.9143 7.17241 21.9149 7.17089 21.9155C6.9325 22.015 6.70753 22.1426 6.5005 22.295L8.72685 21.6816ZM11.0539 22.2768L10.7081 22.6226C10.7068 22.6213 10.7056 22.62 10.7043 22.6187L11.0539 22.2768ZM11.0539 22.2768C11.0347 22.2571 11.0153 22.2377 10.9957 22.2185L11.0539 22.2768ZM11.2183 18.1429C11.953 18.4486 12.6318 18.872 13.2283 19.3955L13.2198 19.404C12.6267 18.8791 11.9508 18.4542 11.2183 18.1471C10.3305 17.7748 9.37738 17.5831 8.41469 17.5831C7.452 17.5831 6.49888 17.7748 5.61107 18.1471C4.87861 18.4542 4.20266 18.8792 3.60961 19.4041L3.60106 19.3955C4.19756 18.872 4.87632 18.4486 5.61109 18.1429C6.49957 17.7732 7.45243 17.5829 8.41469 17.5829C9.37704 17.5829 10.3298 17.7732 11.2183 18.1429ZM11.2183 18.1429L11.4104 17.6813M11.2183 18.1429L11.4104 17.6813M11.4104 17.6813C12.2055 18.0121 12.9393 18.472 13.5825 19.0412L11.4104 17.6813ZM6.12469 22.6189C6.12347 22.6201 6.12225 22.6214 6.12104 22.6226L5.78862 22.2902L6.12469 22.6189ZM16.1099 16.515C15.1353 15.6126 14.0084 14.8879 12.7805 14.375L12.7805 14.375C11.3976 13.7975 9.91385 13.5001 8.41519 13.5001C6.91653 13.5001 5.43279 13.7975 4.04993 14.375L4.04991 14.375C2.82191 14.8879 1.69515 15.6126 0.720505 16.515L0.714102 16.5086C1.69145 15.6074 2.82041 14.8839 4.05017 14.3721L3.87607 13.9537L4.05017 14.3721C5.43345 13.7964 6.91693 13.5 8.41529 13.5C9.91355 13.5 11.3971 13.7964 12.7803 14.3721L12.7803 14.3721C14.01 14.8838 15.139 15.6073 16.1163 16.5085L16.1099 16.515ZM13.9463 19.3846L13.9099 19.3481C13.922 19.3602 13.9342 19.3724 13.9463 19.3846Z" fill="black" stroke="black"/>
</svg>
