<svg width="24" height="24" viewBox="0 0 24 24" fill="none" xmlns="http://www.w3.org/2000/svg">
<g clip-path="url(#clip0_25_911)">
<path fill-rule="evenodd" clip-rule="evenodd" d="M11.9931 1.50195C12.1834 1.50195 12.3572 1.61 12.4415 1.78067L15.4111 7.79784L22.0508 8.76012C22.2393 8.78743 22.3958 8.91941 22.4546 9.10052C22.5135 9.28163 22.4643 9.48042 22.3279 9.61324L17.5164 14.2967L18.6509 20.9104C18.6831 21.0981 18.6059 21.2878 18.4518 21.3996C18.2977 21.5114 18.0935 21.5261 17.925 21.4373L11.9998 18.315L6.06078 21.4375C5.89231 21.5261 5.68818 21.5113 5.5342 21.3995C5.38022 21.2876 5.30311 21.098 5.33529 20.9104L6.46981 14.2967L1.65834 9.61324C1.52189 9.48042 1.47273 9.28163 1.53154 9.10052C1.59035 8.91941 1.74693 8.78743 1.93538 8.76012L8.57511 7.79784L11.5447 1.78067C11.629 1.61 11.8028 1.50195 11.9931 1.50195Z" fill="black"/>
</g>
<defs>
<clipPath id="clip0_25_911">
<rect width="24" height="24" fill="white"/>
</clipPath>
</defs>
</svg>
