<svg width="200" height="200" viewBox="0 0 200 200" fill="none" xmlns="http://www.w3.org/2000/svg">
<g clip-path="url(#clip0_17_3492)">
<circle cx="100" cy="100" r="100" fill="#FEC110"/>
<g clip-path="url(#clip1_17_3492)">
<path d="M-169.181 95.7866V69.3624L-173.132 58.7432L-167.699 60.2249L-162.513 69.3622L-143.992 71.3378L-129.915 69.3622C-129.915 69.3622 -72.8666 41.9503 -15.8231 41.9503C14.0585 41.9503 30.3345 43.5792 45.5699 48.9149C53.3727 51.6563 60.9057 55.3355 69.8708 60.2748L69.873 60.2974C77.5783 64.5455 86.3213 69.7317 97.1876 75.98L99.5574 77.3395C100.348 77.8084 101.164 78.2525 101.977 78.7215C103.212 79.4374 137.538 79.2154 163.469 83.4136C189.399 87.6118 205.944 97.9837 205.944 97.9837L209.402 106.38L212.612 109.344L210.143 133.546L216.81 141.942H172.628V119.742C172.628 101.739 158.033 87.1188 140.005 87.1188C121.978 87.1188 107.383 101.714 107.383 119.742V141.942H-46.9435V119.742C-46.9435 101.739 -61.5386 87.1188 -79.5662 87.1188C-97.5688 87.1188 -112.189 101.714 -112.189 119.742V137.35L-175.879 126.903V101.713L-169.181 95.7866ZM83.6295 127.644C85.5802 127.644 87.3089 126.384 87.9523 124.533L95.164 102.923C95.608 101.564 94.8921 100.082 93.5101 99.6133C93.2382 99.5136 92.9663 99.4887 92.6945 99.4887L88.3966 99.4909L80.4941 127.644L83.6295 127.644ZM-11.8675 79.9816L74.3205 83.4389V73.808C74.3205 73.808 44.686 52.3231 16.531 52.3231H-16.8074L-11.8675 79.9816ZM-80.5221 78.4999H-29.4003V52.3227C-49.8975 52.3227 -85.7079 67.8807 -85.7079 67.8807L-80.5221 78.4999Z" fill="#2C2C2C"/>
<path d="M152.04 119.764L154.582 119.814V119.739C154.582 117.838 154.211 115.96 153.495 114.181L148.481 116.257C148.925 117.344 149.172 118.529 149.172 119.714V119.764L152.04 119.764Z" fill="#2C2C2C"/>
<path d="M148.456 123.244C147.987 124.356 147.321 125.367 146.48 126.207L150.309 130.059C151.669 128.699 152.729 127.095 153.47 125.342L148.456 123.244Z" fill="#2C2C2C"/>
<path d="M146.478 113.291L150.33 109.462C148.97 108.103 147.391 107.018 145.613 106.277L143.512 111.29C144.627 111.762 145.638 112.453 146.478 113.291Z" fill="#2C2C2C"/>
<path d="M140.011 128.876V134.309C141.912 134.309 143.815 133.937 145.569 133.196L143.493 128.182C142.383 128.654 141.196 128.876 140.011 128.876Z" fill="#2C2C2C"/>
<path d="M133.834 119.741C133.834 123.15 136.598 125.915 140.008 125.915C143.418 125.915 146.182 123.151 146.182 119.741C146.182 116.331 143.418 113.567 140.008 113.567C136.599 113.567 133.834 116.331 133.834 119.741Z" fill="#2C2C2C"/>
<path d="M140.011 110.6H140.036V105.167H140.011C138.11 105.167 136.232 105.538 134.479 106.254L136.554 111.293C137.641 110.822 138.826 110.6 140.011 110.6Z" fill="#2C2C2C"/>
<path d="M133.538 126.208L129.687 130.036C131.046 131.396 132.65 132.456 134.404 133.197L136.479 128.183C135.392 127.714 134.404 127.048 133.538 126.208Z" fill="#2C2C2C"/>
<path d="M129.739 109.393C128.38 110.728 127.295 112.332 126.554 114.11L131.568 116.211C132.037 115.098 132.703 114.11 133.568 113.247L129.739 109.393Z" fill="#2C2C2C"/>
<path d="M130.87 119.688H125.437V119.738C125.437 121.639 125.809 123.542 126.55 125.319L131.564 123.243C131.095 122.131 130.873 120.946 130.873 119.761L130.87 119.688Z" fill="#2C2C2C"/>
<path d="M140.011 90.1026C156.385 90.1026 169.646 103.363 169.646 119.737C169.646 136.11 156.385 149.372 140.011 149.372C123.637 149.372 110.377 136.111 110.377 119.737C110.377 103.364 123.637 90.1026 140.011 90.1026ZM140.011 136.036C149.026 136.036 156.31 128.75 156.31 119.737C156.31 110.722 149.024 103.437 140.011 103.437C130.996 103.437 123.712 110.723 123.712 119.737C123.712 128.752 130.998 136.036 140.011 136.036Z" fill="#2C2C2C"/>
<path d="M152.04 119.764L154.582 119.814V119.739C154.582 117.838 154.211 115.96 153.495 114.181L148.481 116.257C148.925 117.344 149.172 118.529 149.172 119.714V119.764L152.04 119.764Z" fill="#2C2C2C"/>
<path d="M148.456 123.244C147.987 124.356 147.321 125.367 146.48 126.207L150.309 130.059C151.669 128.699 152.729 127.095 153.47 125.342L148.456 123.244Z" fill="#2C2C2C"/>
<path d="M146.478 113.291L150.33 109.462C148.97 108.103 147.391 107.018 145.613 106.277L143.512 111.29C144.627 111.762 145.638 112.453 146.478 113.291Z" fill="#2C2C2C"/>
<path d="M140.011 128.876V134.309C141.912 134.309 143.815 133.937 145.569 133.196L143.493 128.182C142.383 128.654 141.196 128.876 140.011 128.876Z" fill="#2C2C2C"/>
<path d="M133.834 119.741C133.834 123.15 136.598 125.915 140.008 125.915C143.418 125.915 146.182 123.151 146.182 119.741C146.182 116.331 143.418 113.567 140.008 113.567C136.599 113.567 133.834 116.331 133.834 119.741Z" fill="#2C2C2C"/>
<path d="M140.011 110.6H140.036V105.167H140.011C138.11 105.167 136.232 105.538 134.479 106.254L136.554 111.293C137.641 110.822 138.826 110.6 140.011 110.6Z" fill="#2C2C2C"/>
<path d="M133.538 126.208L129.687 130.036C131.046 131.396 132.65 132.456 134.404 133.197L136.479 128.183C135.392 127.714 134.404 127.048 133.538 126.208Z" fill="#2C2C2C"/>
<path d="M131.59 116.208C132.059 115.096 132.725 114.108 133.59 113.245L129.761 109.393C128.402 110.728 127.317 112.332 126.576 114.11L131.59 116.208Z" fill="#2C2C2C"/>
<path d="M125.442 119.688V119.738C125.442 121.639 125.813 123.542 126.554 125.319L131.568 123.243C131.099 122.131 130.877 120.946 130.877 119.761V119.711H125.442V119.688Z" fill="#2C2C2C"/>
<path d="M133.834 119.741C133.834 123.15 136.598 125.915 140.008 125.915C143.418 125.915 146.182 123.151 146.182 119.741C146.182 116.331 143.418 113.567 140.008 113.567C136.599 113.567 133.834 116.331 133.834 119.741Z" fill="#2C2C2C"/>
<path d="M140.011 128.876C141.196 128.876 142.381 128.654 143.493 128.185L145.569 133.198C143.815 133.914 141.914 134.311 140.011 134.311V128.876ZM133.541 126.209C134.381 127.049 135.394 127.74 136.504 128.184L134.429 133.198C132.675 132.457 131.071 131.395 129.712 130.038L133.541 126.209ZM148.458 123.245L153.472 125.346C152.731 127.099 151.668 128.703 150.311 130.063L146.482 126.211C147.323 125.371 147.989 124.358 148.458 123.245ZM130.874 119.741C130.874 120.95 131.096 122.135 131.565 123.223L126.552 125.298C125.811 123.52 125.439 121.644 125.439 119.718V119.668L130.874 119.666V119.741ZM153.497 114.208C154.213 115.961 154.584 117.862 154.584 119.765V119.84L152.04 119.79L149.149 119.788V119.738C149.149 118.553 148.927 117.391 148.458 116.281L153.497 114.208ZM129.739 109.391L133.568 113.243C132.703 114.083 132.037 115.096 131.568 116.206L126.554 114.106C127.317 112.355 128.38 110.75 129.739 109.391ZM145.619 106.305C147.373 107.046 148.977 108.134 150.336 109.491L146.485 113.32C145.644 112.479 144.631 111.788 143.521 111.319L145.619 106.305ZM140.012 105.168H140.037V110.601H140.012C138.827 110.601 137.642 110.823 136.554 111.292L134.479 106.253C136.233 105.54 138.111 105.168 140.012 105.168Z" fill="#2C2C2C"/>
</g>
<path d="M53 171L81.311 21H119.059L147 171H116.469L111.472 139.333H89.4528L84.2717 171H53ZM92.4134 119.519H108.327L100.37 61L92.4134 119.519Z" fill="white"/>
</g>
<defs>
<clipPath id="clip0_17_3492">
<rect width="200" height="200" rx="100" fill="white"/>
</clipPath>
<clipPath id="clip1_17_3492">
<rect width="200" height="109" fill="white" transform="translate(0 41)"/>
</clipPath>
</defs>
</svg>
